<?xml version="1.0" encoding="UTF-8"?><svg id="Layer_2" xmlns="http://www.w3.org/2000/svg" viewBox="0 0 1034.06 594.08"><defs><style>.cls-1{fill:#4d148c;}</style></defs><g id="Layer_1-2"><path class="cls-1" d="m37.05,150.54c24.27-45.42,60.01-81.61,107.18-108.56C191.38,15.02,248.06,1.03,314.22,0l-1.44,204c-37.41,2.72-66.01,12.61-85.77,29.68-19.78,17.05-29.76,39.4-29.95,67.05-.2,28.39,8.02,50.87,24.69,67.43,16.65,16.54,39.84,24.94,69.57,25.14,24.92.17,45.57-6.24,61.97-19.19,16.38-12.97,29.91-28.94,40.6-47.92,10.67-18.98,22.84-46,36.52-81.02,20.49-50.69,40.91-92.02,61.27-124,20.36-32,50.26-59.45,89.74-82.33,39.46-22.9,90.84-34.12,154.11-33.69,93.94.65,167.34,27.67,220.17,81.11,52.83,53.42,78.95,122.73,78.35,207.92-.61,86.68-27.7,156.36-81.29,209.06-53.58,52.68-127.83,80.57-222.77,83.66l1.46-207.37c32.59-1.28,58.32-10.44,77.13-27.49,18.82-17.07,28.32-39.04,28.51-65.94.16-23.17-7.61-41.91-23.33-56.21-15.72-14.31-38.45-21.56-68.15-21.77-32.6-.22-58.1,11.55-76.47,35.34-18.39,23.78-38.31,61-59.75,111.68-22.42,50.66-43.79,91.79-64.14,123.43-20.35,31.61-49.8,58.87-88.3,81.78-38.52,22.89-87.96,34.14-148.36,33.73-57.52-.4-109.7-12.16-156.5-35.27-46.82-23.13-83.98-56.45-111.46-99.97C13.12,415.29-.41,364,0,304.98c.41-57.55,12.74-109.03,37.04-154.44Z"/></g></svg>